<?xml version="1.0" standalone="no"?>
<!DOCTYPE svg PUBLIC "-//W3C//DTD SVG 20010904//EN"
 "http://www.w3.org/TR/2001/REC-SVG-20010904/DTD/svg10.dtd">
<svg version="1.0" xmlns="http://www.w3.org/2000/svg"
 width="128.000000pt" height="142.000000pt" viewBox="0 0 128.000000 142.000000"
 preserveAspectRatio="xMidYMid meet">
<metadata>
Created by potrace 1.10, written by Peter Selinger 2001-2011
</metadata>
<g transform="translate(0.000000,142.000000) scale(0.100000,-0.100000)"
fill="#000000" stroke="none">
<path d="M215 1379 l-30 -27 -5 -352 c-3 -215 -1 -355 5 -361 12 -12 52 -12
60 1 3 6 46 10 94 10 l88 0 19 41 c25 57 94 124 149 145 52 19 175 15 216 -8
43 -23 110 -92 131 -132 29 -57 35 -143 13 -211 -9 -31 -22 -61 -29 -68 -6 -7
-16 -22 -22 -32 -6 -11 -37 -38 -69 -59 -55 -37 -63 -40 -134 -40 -60 -1 -86
4 -123 22 -45 23 -105 79 -128 121 -10 20 -19 21 -140 21 l-130 0 0 -172 c0
-95 3 -183 6 -195 7 -26 50 -38 87 -24 31 12 67 65 67 98 0 12 9 27 21 33 17
10 26 6 59 -24 84 -76 216 -122 320 -112 176 16 320 108 398 254 89 167 93
334 12 499 -39 81 -111 173 -136 173 -8 0 -14 5 -14 10 0 6 -10 15 -22 20 -13
6 -30 14 -38 19 -35 21 -98 42 -132 44 -20 1 -40 6 -44 10 -11 11 -82 8 -90
-4 -3 -6 -15 -8 -27 -5 -23 6 -122 -32 -166 -63 -16 -12 -38 -21 -48 -21 -18
0 -19 8 -15 149 5 168 -3 207 -50 246 -42 35 -109 33 -153 -6z m134 -26 l36
-37 1 -151 c2 -190 3 -195 56 -195 37 0 98 25 106 43 2 4 12 7 21 7 10 0 33 7
50 16 25 13 53 15 122 12 50 -2 94 -9 101 -16 7 -7 22 -12 35 -12 13 0 23 -5
23 -12 0 -6 3 -8 6 -5 11 10 121 -72 157 -117 44 -55 97 -164 101 -210 2 -20
6 -39 10 -43 11 -12 6 -105 -10 -167 -46 -178 -128 -274 -304 -355 -14 -6 -41
-13 -61 -15 -20 -2 -40 -5 -45 -8 -22 -14 -174 7 -174 23 0 5 -11 9 -25 9 -14
0 -25 4 -25 9 0 5 -10 12 -22 15 -13 3 -41 22 -63 41 -52 46 -91 45 -120 -4
-11 -19 -32 -47 -47 -63 -24 -25 -30 -27 -47 -16 -18 11 -20 23 -19 119 0 58
-2 111 -6 117 -3 6 -2 14 4 17 8 5 8 11 1 19 -20 24 27 49 89 48 98 -2 103 -4
160 -60 93 -91 187 -125 287 -102 82 19 125 43 171 95 54 62 72 118 72 227 0
74 -4 97 -25 137 -30 61 -109 131 -166 148 -60 17 -189 16 -213 -2 -10 -8 -23
-12 -27 -9 -9 5 -97 -79 -144 -139 -29 -37 -32 -38 -104 -43 -47 -3 -79 0 -88
7 -11 10 -13 69 -13 324 l1 313 31 36 c17 20 40 36 51 36 11 0 36 -17 56 -37z"/>
</g>
</svg>
